<svg id="Layer_1" data-name="Layer 1" xmlns="http://www.w3.org/2000/svg" xmlns:xlink="http://www.w3.org/1999/xlink" viewBox="0 0 335.04 119.68"><defs><style>.cls-1{fill:none;}.cls-2{clip-path:url(#clip-path);}.cls-3{fill:#e63725;}.cls-4{fill:#bb2818;}.cls-5{fill:#0e7ab1;}.cls-6{fill:#fff;}</style><clipPath id="clip-path"><path class="cls-1" d="M335,40.11a7.43,7.43,0,0,1-7.43,7.43h-21a7.43,7.43,0,0,1-7.43-7.43v-21a7.42,7.42,0,0,1,7.43-7.43h21A7.42,7.42,0,0,1,335,19.11v21"/></clipPath></defs><title>kiksha</title><g class="cls-2"><polygon class="cls-3" points="292.52 5.03 292.52 54.2 341.7 5.03 292.52 5.03"/><polygon class="cls-4" points="292.52 5.03 292.52 54.2 317.11 29.62 292.52 5.03"/><polygon class="cls-3" points="341.7 54.2 341.7 5.03 292.52 54.2 341.7 54.2"/><polygon class="cls-4" points="341.7 54.2 341.7 5.03 317.11 29.62 341.7 54.2"/></g><polygon class="cls-5" points="29.9 82.73 51.71 118.5 34.05 118.5 16.5 86.69 16.5 118.5 0 118.5 0 72.78 15.07 57.81 16.5 56.64 16.5 78.77 30.59 53.2 34.05 46.94 51.71 46.94 29.9 82.73"/><path class="cls-5" d="M56.44,46.95H72.95v71.57H56.44V46.95Z"/><polygon class="cls-5" points="110.6 82.73 132.4 118.51 114.74 118.51 97.19 86.7 97.19 118.51 80.69 118.51 80.69 46.95 97.19 46.95 97.19 78.77 114.74 46.95 132.4 46.95 110.6 82.73"/><path class="cls-5" d="M133.75,60.86q0-15,23.68-15t23.72,15v9.6h-16.5v-9.6c0-3.22-2.38-4.83-7.17-4.89h-0.11c-4.74,0-7.12,1.65-7.12,4.89v6.49q0,4.79,15.44,11.7t15.45,16.51v9q0,15.1-23.67,15.07T133.75,104.6V95h16.51v9.61c0,3.26,2.4,4.86,7.23,4.86s7.17-1.6,7.17-4.86V96.44q0-5.16-15.46-12.11T133.75,67.56v-6.7Z"/><path class="cls-5" d="M204.22,118.51h-16.5V23.77h16.5V48.11c3.27-1.5,7.52-2.28,12.77-2.28q18.14,0,18.13,15.06v57.63h-16.5V60.88c0-3.25-2.41-4.86-7.23-4.86s-7.13,1.61-7.17,4.83v57.65Z"/><path class="cls-5" d="M274.08,60.86c0-3.24-2.38-4.89-7.12-4.89h-0.12c-4.78.05-7.17,1.66-7.17,4.89v9.6h-16.5v-9.6q0-15,23.73-15t23.67,15V104.6q0,15.1-23.67,15.07T243.18,104.6v-12q0-15,18.13-15.06,7.87,0,12.77,2.3v-19ZM259.68,104.6c0,3.26,2.42,4.86,7.23,4.86s7.17-1.6,7.17-4.86v-12c0-3.2-2.43-4.8-7.17-4.8s-7.23,1.62-7.23,4.85v12Z"/><polygon class="cls-5" points="56.44 16.52 72.95 0 72.95 16.52 56.44 16.52"/><polygon class="cls-6" points="319.55 29.62 325.82 39.89 320.74 39.89 315.7 30.75 315.7 39.89 310.96 39.89 310.96 26.76 315.29 22.46 315.7 22.12 315.7 28.48 319.75 21.13 320.74 19.33 325.82 19.33 319.55 29.62"/></svg>